<svg width="800" height="800" viewBox="0 0 32 32" xmlns="http://www.w3.org/2000/svg"><g/><path d="M28.262 5.87a2.666 2.666 0 1 0-3.199 2.612v18.18h1.066V8.482a2.67 2.67 0 0 0 2.133-2.612m-2.666 1.6c-.882 0-1.599-.717-1.599-1.599s.717-1.599 1.599-1.599 1.599.717 1.599 1.599-.717 1.599-1.599 1.599M6.937 23.517V5.337H5.871v18.18a2.665 2.665 0 1 0 1.067 0zm-.533 4.212c-.882 0-1.599-.717-1.599-1.599s.717-1.599 1.599-1.599 1.599.717 1.599 1.599-.717 1.599-1.599 1.599m10.129-14.341v-8.05h-1.066v8.05a2.667 2.667 0 0 0 0 5.224v8.05h1.066v-8.05a2.667 2.667 0 0 0 0-5.224M16 17.599c-.882 0-1.599-.717-1.599-1.599s.717-1.599 1.599-1.599 1.599.717 1.599 1.599-.717 1.599-1.599 1.599"/></svg>